<svg id="Layer_1" data-name="Layer 1" xmlns="http://www.w3.org/2000/svg" viewBox="0 0 160 160"><defs><style>.cls-1{fill:#32d74b;}.cls-2{fill:#fff;}</style></defs><rect class="cls-1" x="21.68" y="5.28" width="116.65" height="149.45" rx="10.49"/><rect class="cls-2" x="27.62" y="11.33" width="104.77" height="104.77" rx="4.38"/><rect class="cls-2" x="76.23" y="110.75" width="7.53" height="7.53" rx="1.99" transform="translate(104.41 -23.03) rotate(45)"/><path class="cls-2" d="M52.83,139.7a3.65,3.65,0,0,1-1.32-2l1.43-.58a2.73,2.73,0,0,0,.76,1.3A1.88,1.88,0,0,0,55,139a2,2,0,0,0,1.21-.37,1.19,1.19,0,0,0,.5-1,1.22,1.22,0,0,0-.44-1,5,5,0,0,0-1.53-.78l-.6-.21a4.52,4.52,0,0,1-1.64-1,2.21,2.21,0,0,1-.66-1.67,2.43,2.43,0,0,1,.39-1.33,2.91,2.91,0,0,1,1.09-1,3.36,3.36,0,0,1,1.57-.36,3.19,3.19,0,0,1,2,.61,3.07,3.07,0,0,1,1,1.39l-1.37.58a1.64,1.64,0,0,0-.56-.81,1.6,1.6,0,0,0-1.08-.35,1.83,1.83,0,0,0-1.11.33,1,1,0,0,0-.46.87,1,1,0,0,0,.41.82,4.27,4.27,0,0,0,1.27.62l.6.2a5,5,0,0,1,1.93,1.13,2.55,2.55,0,0,1,.68,1.86,2.5,2.5,0,0,1-.49,1.58,2.81,2.81,0,0,1-1.23,1,4,4,0,0,1-1.55.31A3.55,3.55,0,0,1,52.83,139.7Z"/><path class="cls-2" d="M61.08,139.93a3.35,3.35,0,0,1-1.26-1.3,4.09,4.09,0,0,1,0-3.77,3.35,3.35,0,0,1,1.26-1.3,3.69,3.69,0,0,1,1.85-.47,3.48,3.48,0,0,1,1.92.51A2.82,2.82,0,0,1,66,135l-1.36.57a1.72,1.72,0,0,0-1.74-1.09,1.91,1.91,0,0,0-1,.28,2.14,2.14,0,0,0-.75.8,2.8,2.8,0,0,0,0,2.4,2.1,2.1,0,0,0,.75.81,2,2,0,0,0,1,.28,2.08,2.08,0,0,0,1.11-.29,1.87,1.87,0,0,0,.71-.83l1.33.58a3.1,3.1,0,0,1-1.19,1.39,3.48,3.48,0,0,1-1.92.51A3.69,3.69,0,0,1,61.08,139.93Z"/><path class="cls-2" d="M68.08,140.11a2.19,2.19,0,0,1-.91-.82,2.35,2.35,0,0,1-.32-1.21,2,2,0,0,1,.8-1.69,3.27,3.27,0,0,1,2-.62,4.63,4.63,0,0,1,1.1.12,4.35,4.35,0,0,1,.77.25v-.35a1.27,1.27,0,0,0-.48-1,1.78,1.78,0,0,0-1.21-.4,2.25,2.25,0,0,0-1,.23,1.92,1.92,0,0,0-.75.63l-1-.79a3,3,0,0,1,1.19-1,3.7,3.7,0,0,1,1.62-.35,3.31,3.31,0,0,1,2.3.74A2.65,2.65,0,0,1,73,135.9v4.29H71.55v-.83h-.07a2.25,2.25,0,0,1-.84.74,2.5,2.5,0,0,1-1.24.3A2.85,2.85,0,0,1,68.08,140.11Zm2.55-1.19a1.78,1.78,0,0,0,.67-.69,1.91,1.91,0,0,0,.25-.93,2.85,2.85,0,0,0-.73-.28,3,3,0,0,0-.85-.11,1.88,1.88,0,0,0-1.23.33,1.06,1.06,0,0,0-.39.86,1,1,0,0,0,.36.77,1.46,1.46,0,0,0,1,.3A1.87,1.87,0,0,0,70.63,138.92Z"/><path class="cls-2" d="M74.62,133.31H76v.9h.07a2.22,2.22,0,0,1,.88-.8,2.61,2.61,0,0,1,1.25-.32,2.44,2.44,0,0,1,1.91.74,2.92,2.92,0,0,1,.65,2v4.36H79.32V136a1.61,1.61,0,0,0-.4-1.19,1.72,1.72,0,0,0-2-.1,1.93,1.93,0,0,0-.61.74,2.3,2.3,0,0,0-.21,1v3.73H74.62Z"/><path class="cls-2" d="M87.29,132h-2.7v-1.44H91.5V132H88.8v8.22H87.29Z"/><path class="cls-2" d="M93,139.92a3.38,3.38,0,0,1-1.29-1.31,4.09,4.09,0,0,1,0-3.73A3.45,3.45,0,0,1,93,133.57a3.58,3.58,0,0,1,1.86-.48,3.54,3.54,0,0,1,1.86.49A3.38,3.38,0,0,1,98,134.9a3.73,3.73,0,0,1,.46,1.85,3.77,3.77,0,0,1-.46,1.86,3.36,3.36,0,0,1-1.28,1.31,3.63,3.63,0,0,1-1.86.48A3.58,3.58,0,0,1,93,139.92Zm2.91-1.16a2.11,2.11,0,0,0,.78-.79,2.53,2.53,0,0,0,.29-1.22,2.47,2.47,0,0,0-.29-1.22,2.19,2.19,0,0,0-.78-.79,2.13,2.13,0,0,0-1-.27,2.17,2.17,0,0,0-1.06.27,2.09,2.09,0,0,0-.77.79,2.47,2.47,0,0,0-.29,1.22A2.53,2.53,0,0,0,93,138a2,2,0,0,0,.77.79,2.08,2.08,0,0,0,1.06.28A2,2,0,0,0,95.91,138.76Z"/><path class="cls-2" d="M103.45,139.7a3.55,3.55,0,0,1-1.32-2l1.43-.58a2.65,2.65,0,0,0,.76,1.3,1.87,1.87,0,0,0,1.32.51,2,2,0,0,0,1.21-.37,1.22,1.22,0,0,0,.5-1,1.26,1.26,0,0,0-.44-1,5,5,0,0,0-1.53-.78l-.61-.21a4.56,4.56,0,0,1-1.63-1,2.21,2.21,0,0,1-.66-1.67,2.43,2.43,0,0,1,.39-1.33,2.76,2.76,0,0,1,1.09-1,3.33,3.33,0,0,1,1.57-.36,3.16,3.16,0,0,1,2,.61,3,3,0,0,1,1,1.39l-1.36.58a1.73,1.73,0,0,0-.57-.81,1.55,1.55,0,0,0-1.07-.35,1.84,1.84,0,0,0-1.12.33,1.05,1.05,0,0,0-.45.87,1,1,0,0,0,.41.82,4.19,4.19,0,0,0,1.26.62l.61.2a4.91,4.91,0,0,1,1.92,1.13,2.51,2.51,0,0,1,.68,1.86,2.56,2.56,0,0,1-.48,1.58,2.9,2.9,0,0,1-1.24,1,3.92,3.92,0,0,1-1.54.31A3.55,3.55,0,0,1,103.45,139.7Z"/><path class="cls-2" d="M111.19,140.11a2.23,2.23,0,0,1-.9-.82,2.26,2.26,0,0,1-.32-1.21,2,2,0,0,1,.8-1.69,3.23,3.23,0,0,1,2-.62,4.55,4.55,0,0,1,1.09.12,4.09,4.09,0,0,1,.77.25v-.35a1.29,1.29,0,0,0-.47-1,1.81,1.81,0,0,0-1.22-.4,2.25,2.25,0,0,0-1,.23,1.92,1.92,0,0,0-.75.63l-1-.79a3,3,0,0,1,1.18-1,3.77,3.77,0,0,1,1.62-.35,3.32,3.32,0,0,1,2.31.74,2.65,2.65,0,0,1,.81,2.07v4.29h-1.46v-.83h-.07a2.15,2.15,0,0,1-.83.74,2.53,2.53,0,0,1-1.24.3A2.86,2.86,0,0,1,111.19,140.11Zm2.55-1.19a1.8,1.8,0,0,0,.68-.69,1.9,1.9,0,0,0,.24-.93,2.92,2.92,0,0,0-.72-.28,3.07,3.07,0,0,0-.86-.11,1.85,1.85,0,0,0-1.22.33,1,1,0,0,0-.4.86.94.94,0,0,0,.37.77,1.43,1.43,0,0,0,.94.3A1.85,1.85,0,0,0,113.74,138.92Z"/><path class="cls-2" d="M116.83,133.31h1.66l1.9,5h.06l1.94-5H124l-2.86,6.88h-1.48Z"/><path class="cls-2" d="M126.09,139.93a3.39,3.39,0,0,1-1.25-1.3,3.89,3.89,0,0,1-.45-1.87,3.81,3.81,0,0,1,.44-1.83,3.36,3.36,0,0,1,1.22-1.34,3.25,3.25,0,0,1,1.78-.5,3.4,3.4,0,0,1,1.8.46,3,3,0,0,1,1.16,1.25,4,4,0,0,1,.4,1.8c0,.12,0,.28,0,.47h-5.28a2,2,0,0,0,2.08,2,2.07,2.07,0,0,0,1.1-.29,2.27,2.27,0,0,0,.75-.79l1.25.59a3.64,3.64,0,0,1-1.27,1.34,3.49,3.49,0,0,1-1.87.48A3.58,3.58,0,0,1,126.09,139.93Zm3.59-4a1.83,1.83,0,0,0-.23-.73,1.79,1.79,0,0,0-.62-.6,2,2,0,0,0-1-.24,1.76,1.76,0,0,0-1.21.43,2.19,2.19,0,0,0-.68,1.14Z"/><g id="mobile"><path class="cls-2" d="M29.79,125.49h9a1.88,1.88,0,0,1,1.88,1.88v17a1.89,1.89,0,0,1-1.75,1.88H29.79a1.88,1.88,0,0,1-1.88-1.88v-17A1.88,1.88,0,0,1,29.79,125.49Zm-.87,17.91h8.24a12.92,12.92,0,0,1-.45-1.58l-3.05-3.67a1,1,0,0,1,.18-1.21.88.88,0,0,1,1.14-.25l3.4,2.85,1.23-1.76v-9.67H28.92Z"/><rect class="cls-2" x="32.14" y="126.73" width="3.86" height="0.45" rx="0.05" transform="translate(68.14 253.91) rotate(-180)"/><path class="cls-2" d="M33.66,138.15l3.05,3.67a12.92,12.92,0,0,0,.45,1.58h2.45v-5.62l-1.23,1.76L35,136.69a.88.88,0,0,0-1.14.25A1,1,0,0,0,33.66,138.15Z"/><rect class="cls-2" x="36.52" y="126.73" width="0.45" height="0.45" rx="0.05" transform="translate(73.48 253.91) rotate(-180)"/><path class="cls-2" d="M33.66,138.15l3.05,3.67a12.92,12.92,0,0,0,.45,1.58,6.85,6.85,0,0,0,1.71,2.86,1.08,1.08,0,0,0,.24.18c1.7,1.15,3.75-.2,4-2.82.22-1.63,0-7.84,0-7.84a3.88,3.88,0,0,0-.24-1.58,15.72,15.72,0,0,0-2.23-2.4v4.54l-1,1.44-1.23,1.76L35,136.69a.88.88,0,0,0-1.14.25A1,1,0,0,0,33.66,138.15Z"/><circle class="cls-2" cx="34.12" cy="144.81" r="0.96"/></g></svg>