<svg id="Layer_1" data-name="Layer 1" xmlns="http://www.w3.org/2000/svg" viewBox="0 0 160 160"><defs><style>.cls-1{fill:#ff375f;}.cls-2{fill:#fff;}</style></defs><circle class="cls-1" cx="80" cy="80" r="73.97"/><circle class="cls-2" cx="80" cy="80" r="58.15"/><path class="cls-2" d="M53.89,24a3.29,3.29,0,0,1-1.79-1.15l1.15-1.14a2.14,2.14,0,0,0,1,.75,1.46,1.46,0,0,0,1.14-.05,1.57,1.57,0,0,0,.73-.6.83.83,0,0,0,0-.82.94.94,0,0,0-.63-.57,4.7,4.7,0,0,0-1.43-.09l-.55,0a3.5,3.5,0,0,1-1.62-.25A2,2,0,0,1,50.8,19a2.14,2.14,0,0,1-.16-1.24,2.43,2.43,0,0,1,.55-1.17,3,3,0,0,1,1.18-.84,2.66,2.66,0,0,1,3.2.58l-1.06,1.09a1.47,1.47,0,0,0-.67-.42A1.27,1.27,0,0,0,53,17a1.54,1.54,0,0,0-.7.56.75.75,0,0,0-.06.71.84.84,0,0,0,.55.47,3.37,3.37,0,0,0,1.17.06l.55,0a4.12,4.12,0,0,1,1.94.26A2.23,2.23,0,0,1,57.6,20.3a2.32,2.32,0,0,1,.16,1.45A2.51,2.51,0,0,1,57.09,23a3.54,3.54,0,0,1-1.15.81A3.23,3.23,0,0,1,53.89,24Z"/><path class="cls-2" d="M61.77,21a4.22,4.22,0,0,1-2-1.11,4.38,4.38,0,0,1-1.16-2,4.32,4.32,0,0,1,0-2.31,4.18,4.18,0,0,1,1.11-2,4.45,4.45,0,0,1,2-1.17,4.07,4.07,0,0,1,3.42.49l-.79,1.34a2.57,2.57,0,0,0-2.21-.38,2.86,2.86,0,0,0-1.29.74,2.56,2.56,0,0,0-.71,1.25A3.34,3.34,0,0,0,61,18.82a2.74,2.74,0,0,0,1.26.71,3,3,0,0,0,1.49,0,2.79,2.79,0,0,0,1.85-1.67l1.38.73a4.35,4.35,0,0,1-1.12,1.51,4.69,4.69,0,0,1-1.72.89A4.46,4.46,0,0,1,61.77,21Z"/><path class="cls-2" d="M70.22,10.9,72,10.67l4.21,8-1.75.22L73.54,17l-3.21.41-.45,2.09-1.74.22Zm2.62,4.67-1-2-.43-1-.1,0-.17,1-.49,2.2Z"/><path class="cls-2" d="M77.69,10.21l1.85,0,3.35,5.69H83l-.08-1.63,0-4h1.58l-.07,8.45-1.67,0-3.54-6h-.1l.08,1.63,0,4.35H77.62Z"/><path class="cls-2" d="M91.6,11.07l2,.46.84,6.29.09,0,3.53-5.27,2,.47-1.91,8.23-1.54-.36.94-4.06L98,15.5l-.09,0-3.35,4.94-1.21-.28-.84-5.91-.09,0-.23,1.39-.94,4.06-1.53-.36Z"/><path class="cls-2" d="M103.26,14.17l5,2-.55,1.41-3.5-1.39L103.47,18l3.15,1.24-.56,1.4-3.15-1.24-.72,1.82,3.5,1.38L105.14,24l-5-2Z"/><path class="cls-2" d="M135.76,53.42a3.28,3.28,0,0,1,1.14-1.8L138,52.75a2.23,2.23,0,0,0-.74,1,1.49,1.49,0,0,0,.06,1.13,1.54,1.54,0,0,0,.61.73.85.85,0,0,0,.82,0,1,1,0,0,0,.57-.64,4.83,4.83,0,0,0,.07-1.43l0-.55a3.68,3.68,0,0,1,.24-1.62,2,2,0,0,1,1.11-1.12,2.13,2.13,0,0,1,1.24-.17,2.32,2.32,0,0,1,1.17.54,3.13,3.13,0,0,1,.86,1.17,2.67,2.67,0,0,1-.55,3.2l-1.11-1a1.35,1.35,0,0,0,.42-.68,1.28,1.28,0,0,0-.09-.87,1.42,1.42,0,0,0-.57-.69.72.72,0,0,0-.71-.05.78.78,0,0,0-.46.55,3.44,3.44,0,0,0-.05,1.17l.05.55a4,4,0,0,1-.23,1.94,2.25,2.25,0,0,1-1.25,1.19,2.34,2.34,0,0,1-1.45.18,2.61,2.61,0,0,1-1.22-.66,3.38,3.38,0,0,1-.82-1.14A3.24,3.24,0,0,1,135.76,53.42Z"/><path class="cls-2" d="M138.8,61.24a4.3,4.3,0,0,1,1.09-2,4.41,4.41,0,0,1,2-1.18,4.53,4.53,0,0,1,2.31-.06,4.34,4.34,0,0,1,2,1.1,4.41,4.41,0,0,1,1.18,2,4,4,0,0,1-.45,3.42l-1.35-.78a2.53,2.53,0,0,0,.35-2.21,2.83,2.83,0,0,0-.74-1.28,2.62,2.62,0,0,0-1.26-.7,3,3,0,0,0-1.57.06,3.1,3.1,0,0,0-1.36.78,2.75,2.75,0,0,0-.7,1.27,2.88,2.88,0,0,0,.06,1.48A2.79,2.79,0,0,0,142,65l-.72,1.38a4.18,4.18,0,0,1-1.51-1.1,4.64,4.64,0,0,1-1-4Z"/><path class="cls-2" d="M149,69.63l.25,1.81-7.94,4.28L141,74,143,73l-.44-3.2-2.09-.43-.24-1.75Zm-4.64,2.67,2-1,1-.44v-.09l-1.05-.17-2.2-.46Z"/><path class="cls-2" d="M149.76,77.16V79l-5.7,3.35v.09l1.63-.08,4,0,0,1.59-8.44-.07V82.24l6-3.54v-.09l-1.63.08-4.35,0V77.09Z"/><path class="cls-2" d="M149,91l-.45,2-6.28.9,0,.09,5.3,3.48-.44,2-8.25-1.83.35-1.55,4.06.91,1.35.4,0-.1-5-3.3.27-1.21,5.91-.9,0-.09-1.39-.21-4.07-.91.34-1.53Z"/><path class="cls-2" d="M146,102.69l-1.93,5-1.41-.54,1.35-3.52-1.82-.7L141,106.09l-1.41-.54,1.22-3.16-1.83-.7-1.35,3.51-1.41-.54,1.92-5Z"/><path class="cls-2" d="M107.07,135.56a3.3,3.3,0,0,1,1.82,1.13l-1.13,1.15a2.21,2.21,0,0,0-1-.73,1.45,1.45,0,0,0-1.13.07,1.56,1.56,0,0,0-.72.61.85.85,0,0,0,0,.83,1,1,0,0,0,.65.56,4.91,4.91,0,0,0,1.43.06l.55,0a3.67,3.67,0,0,1,1.62.21,2,2,0,0,1,1.13,1.11,2.11,2.11,0,0,1,.19,1.23,2.38,2.38,0,0,1-.53,1.18,3.22,3.22,0,0,1-1.16.87,2.78,2.78,0,0,1-1.87.25,2.75,2.75,0,0,1-1.34-.77l1-1.12a1.44,1.44,0,0,0,.69.41,1.2,1.2,0,0,0,.86-.1,1.35,1.35,0,0,0,.68-.57.73.73,0,0,0,0-.71.82.82,0,0,0-.56-.46,3.48,3.48,0,0,0-1.16,0l-.56.05a4.19,4.19,0,0,1-1.94-.21,2.54,2.54,0,0,1-1.39-2.69,2.7,2.7,0,0,1,.64-1.23,3.53,3.53,0,0,1,1.14-.82A3.16,3.16,0,0,1,107.07,135.56Z"/><path class="cls-2" d="M99.29,138.68a4.26,4.26,0,0,1,2,1.07,4.56,4.56,0,0,1,1.28,4.28,4.19,4.19,0,0,1-1.08,2,4.4,4.4,0,0,1-2,1.21,4.12,4.12,0,0,1-3.43-.42l.76-1.36a2.55,2.55,0,0,0,2.22.33,2.94,2.94,0,0,0,1.28-.75,2.67,2.67,0,0,0,.68-1.27,3.31,3.31,0,0,0-.87-2.92,2.55,2.55,0,0,0-1.27-.68,2.87,2.87,0,0,0-1.48.06,2.77,2.77,0,0,0-1.82,1.7l-1.39-.7a4.18,4.18,0,0,1,1.08-1.53,4.62,4.62,0,0,1,1.71-.92A4.43,4.43,0,0,1,99.29,138.68Z"/><path class="cls-2" d="M91,148.93l-1.81.27-4.36-7.9,1.74-.26,1,1.9,3.2-.47.41-2.1,1.74-.25Zm-2.71-4.62,1,2,.45.95h.09L90,146.2l.44-2.21Z"/><path class="cls-2" d="M83.49,149.79H81.63l-3.4-5.65h-.1l.1,1.62v4H76.65v-8.45h1.68l3.59,6H82l-.1-1.63v-4.35h1.57Z"/><path class="cls-2" d="M69.63,149.17l-2-.43-1-6.27-.09,0-3.43,5.34-2-.43,1.76-8.26,1.54.33-.86,4.07-.39,1.36.09,0,3.26-5,1.22.25,1,5.9.09,0,.2-1.39.87-4.08,1.53.33Z"/><path class="cls-2" d="M57.91,146.29l-5-1.87.52-1.42L57,144.32l.68-1.84-3.17-1.18.53-1.42,3.17,1.19.69-1.84-3.53-1.31.53-1.42,5,1.87Z"/><path class="cls-2" d="M24.68,107.68a3.23,3.23,0,0,1-1.11,1.82l-1.16-1.11a2.16,2.16,0,0,0,.72-1,1.52,1.52,0,0,0-.08-1.14,1.56,1.56,0,0,0-.62-.71.87.87,0,0,0-.83,0,1,1,0,0,0-.55.65A4.67,4.67,0,0,0,21,107.6l.05.55a3.57,3.57,0,0,1-.2,1.63,2,2,0,0,1-1.09,1.14,2.13,2.13,0,0,1-1.24.19,2.3,2.3,0,0,1-1.18-.51,3.06,3.06,0,0,1-.88-1.16,2.77,2.77,0,0,1-.27-1.86,2.73,2.73,0,0,1,.76-1.35l1.12,1a1.42,1.42,0,0,0-.4.69,1.3,1.3,0,0,0,.11.87,1.39,1.39,0,0,0,.58.67.72.72,0,0,0,.71,0,.79.79,0,0,0,.45-.56,3.53,3.53,0,0,0,0-1.17l-.07-.55a4.13,4.13,0,0,1,.2-1.95,2.28,2.28,0,0,1,1.23-1.21,2.25,2.25,0,0,1,1.44-.2,2.67,2.67,0,0,1,1.24.63,3.41,3.41,0,0,1,.83,1.13A3.22,3.22,0,0,1,24.68,107.68Z"/><path class="cls-2" d="M21.48,99.91a4.25,4.25,0,0,1-1.05,2,4.39,4.39,0,0,1-2,1.22,4.39,4.39,0,0,1-4.31-.95,4.42,4.42,0,0,1-1.22-2,4.08,4.08,0,0,1,.39-3.43l1.36.75a2.58,2.58,0,0,0-.31,2.22,2.94,2.94,0,0,0,.77,1.27,2.56,2.56,0,0,0,1.28.67A3,3,0,0,0,18,101.6a3.06,3.06,0,0,0,1.35-.81A2.66,2.66,0,0,0,20,99.52,3,3,0,0,0,19.93,98a2.77,2.77,0,0,0-1.72-1.8l.69-1.4a4.18,4.18,0,0,1,1.53,1.08,4.36,4.36,0,0,1,.94,1.69A4.44,4.44,0,0,1,21.48,99.91Z"/><path class="cls-2" d="M11.14,91.72l-.28-1.81,7.86-4.43L19,87.22l-1.88,1,.5,3.19,2.1.39L20,93.55ZM15.74,89l-2,1.07-1,.45,0,.1,1,.14,2.21.42Z"/><path class="cls-2" d="M10.21,84.22l0-1.85,5.63-3.46v-.1l-1.63.11-4,0,0-1.58,8.45-.09V79l-5.94,3.65v.1l1.63-.12,4.35,0,0,1.57Z"/><path class="cls-2" d="M10.7,70.36l.41-2,6.26-1,0-.09L12,63.86l.41-2,8.28,1.67-.32,1.55-4.08-.82L15,63.87l0,.09,5,3.21-.25,1.21-5.88,1,0,.1,1.39.18,4.08.83L19,72Z"/><path class="cls-2" d="M13.47,58.61l1.83-5,1.42.52-1.28,3.54,1.84.66,1.15-3.18,1.42.51L18.7,58.81l1.84.66,1.28-3.53,1.42.51-1.82,5Z"/></svg>