<svg id="Layer_1" data-name="Layer 1" xmlns="http://www.w3.org/2000/svg" viewBox="0 0 160 160"><defs><style>.cls-1{fill:#2d2d2d;}.cls-2{fill:#ff7193;}</style></defs><path class="cls-1" d="M79.65,128.74A50.94,50.94,0,1,1,130.58,77.8,51,51,0,0,1,79.65,128.74Zm0-100.8A49.87,49.87,0,1,0,129.51,77.8,49.91,49.91,0,0,0,79.65,27.94Z"/><path class="cls-2" d="M95.06,15.61a25.61,25.61,0,0,0,1.78,2.49c.65.78,1.33,1.54,2,2.26l2.28,2q1.26.84,2.55,1.62c.9.43,1.81.85,2.72,1.26s1.89.6,2.84.9,1.94.37,2.9.52h0s0,0,0,0h0l2.26,1.47,1.15.73,1.11.79L119,31.23l2.1,1.73a50.65,50.65,0,0,1,7.52,7.95c1.06,1.51,2.18,3,3.18,4.55s1.82,3.24,2.71,4.88l1.23,2.52,1,2.61,1,2.64.82,2.7a0,0,0,0,0,0,0,13.38,13.38,0,0,1,1,2.48A26.18,26.18,0,0,1,139.9,66l.35,2.71a16.21,16.21,0,0,0,.59,2.66.05.05,0,0,0,0,0,0,0,0,0,0,0-.06,18.41,18.41,0,0,1-.53-2.66l-.27-2.7a25.19,25.19,0,0,0-.32-2.72,13.06,13.06,0,0,0-.91-2.57L138.14,58l-.95-2.68-1-2.66L135,50.06c-.86-1.68-1.75-3.34-2.65-5s-2.07-3.13-3.12-4.69a38.69,38.69,0,0,0-7.68-8.06l-2.2-1.68L117,29.18l-1.16-.72-1.2-.64-2.42-1.26h0c-.65-.71-1.31-1.41-2-2.1l-2.09-2-2.14-2c-.72-.66-1.46-1.29-2.19-1.94l-2.35-1.73L99,15.17c-.83-.49-1.66-1-2.5-1.46l-2.64-1.16h0a.28.28,0,0,0-.2,0,.28.28,0,0,0-.12.35A22.34,22.34,0,0,0,95.06,15.61Z"/><path class="cls-2" d="M122,36.54l-.11,0q-.64-.25-1.29-.57l-2-1a21.24,21.24,0,0,0-4-1.64l-1-.3c-.35-.07-.71-.12-1.07-.17a19.64,19.64,0,0,0-2.15-.24,8.62,8.62,0,0,0-4.27.83h0a.21.21,0,0,0-.08.06.25.25,0,0,0,0,.34,9.51,9.51,0,0,0,3.75,2.27,14.09,14.09,0,0,0,2.11.51c.71.09,1.44.15,2.16.22,1.43,0,2.86-.25,4.26-.32a16.64,16.64,0,0,1,2.12-.12,7.46,7.46,0,0,1,1,.1l.52.12a2,2,0,0,0,.56.13l-.08,0C122.33,36.62,122.13,36.61,122,36.54Z"/><path class="cls-2" d="M110.82,14.49c.36.74.79,1.42,1.17,2.14.77,1.45,1.45,2.92,2.18,4.35h0l0,0c.48.69,1,1.38,1.47,2s1.09,1.26,1.66,1.87l1.71,1.8c.61.61,1.2,1.2,1.75,1.81-.47-1-.87-2-1.31-3.08h0v0a23.62,23.62,0,0,1-1.76-3.78c-.25-.67-.51-1.32-.77-2s-.57-1.29-.86-1.94a11.11,11.11,0,0,0-2.39-3.6,9.2,9.2,0,0,0-3.55-2.23h0a.2.2,0,0,0-.15,0,.25.25,0,0,0-.13.31C110.12,13,110.47,13.74,110.82,14.49Z"/><path class="cls-2" d="M130.26,33.59a32.67,32.67,0,0,0,1.48,5.27c.36.84.69,1.67,1,2.52s.79,1.67,1.15,2.49c0-1.78.19-3.72.34-5.53a50.31,50.31,0,0,0,.24-5.49,23.58,23.58,0,0,0-.14-2.77l-.16-1.4q-.1-.69-.27-1.38a9.09,9.09,0,0,0-2.85-4.73h0l-.07,0a.22.22,0,0,0-.28.15,21.27,21.27,0,0,0-.9,5.42,14.15,14.15,0,0,0,.06,2.76C130,31.76,130.06,32.7,130.26,33.59Z"/><path class="cls-2" d="M120.42,46c.92.41,1.89.76,2.86,1.1s1.92.64,2.91.9,2,.5,3,.69,2,.34,3,.46c.21-.08,0-.53-.14-.28-.59-.28-1.49-.72-2.52-1.17a17.66,17.66,0,0,1-3-1.09,14.22,14.22,0,0,0-3-1A4.51,4.51,0,0,0,120.42,46Z"/><path class="cls-2" d="M74.13,33.68l-1.86-1.15h0l-.09-.06h0l-2.28-1.42a43.87,43.87,0,0,0-6.69-3.16,35.76,35.76,0,0,0-7.1-1.68,34,34,0,0,0-3.63-.31c-.6,0-1.2.07-1.81.08a12.26,12.26,0,0,0-1.81.14,35.25,35.25,0,0,0-7.13,1.45s0,0,0,0h0a10.53,10.53,0,0,1-3.19,2.2c-1.19.5-2.39,1-3.6,1.39h0a16.25,16.25,0,0,1-7.14.21,5.73,5.73,0,0,0-1.72-.2,3.64,3.64,0,0,1-.95,0,.68.68,0,0,1-.44-.49,2.53,2.53,0,0,1-.06-.53,4.43,4.43,0,0,1,0-.51,1,1,0,0,1,.25-.61.94.94,0,0,1,.59-.23,3.86,3.86,0,0,1,.47,0,6.66,6.66,0,0,0,1.68-.17c1.1-.27,2.3-.64,3.47-.86l1.78-.28a15.22,15.22,0,0,1,1.79-.09c2.36-.05,4.69,0,7,.05h0a0,0,0,0,1,0,0,24.73,24.73,0,0,1,7.12-2.15,13.12,13.12,0,0,1,1.86-.23c.62-.06,1.24-.12,1.87-.13a23.07,23.07,0,0,1,3.71.35,38.1,38.1,0,0,1,7.2,1.94,44.21,44.21,0,0,1,6.69,3.39h0l0,0q1.34,1,2.67,2h0Z"/><line class="cls-2" x1="74.15" y1="33.7" x2="73.18" y2="33.33"/><path class="cls-2" d="M72.8,32.67h0Z"/><path class="cls-2" d="M44,31.65a13.86,13.86,0,0,0-1.64,2c-.49.69-1,1.39-1.43,2.09l0,0a.29.29,0,0,0,0,.24.22.22,0,0,0,.3.11c1-.47,1.88-1,2.81-1.51a28.38,28.38,0,0,0,2.75-1.63,21.62,21.62,0,0,0,2.37-2.22c.37-.46.72-.93,1-1.36a13.15,13.15,0,0,1,1-1.2c-.45.21-.89.41-1.36.58l-1.49.52,0,0A8,8,0,0,0,44,31.65Z"/><path class="cls-2" d="M34.23,20.69a7.55,7.55,0,0,0,.87.4,15.92,15.92,0,0,0,1.76.61c1.18.36,2.35.85,3.52,1.23a28.85,28.85,0,0,0,3.56,1c1.21.27,2.47.32,3.66.59h0a.25.25,0,0,0,.12-.34.56.56,0,0,0-.07-.16.36.36,0,0,0-.12-.13c-1.13-.51-2.22-1.16-3.3-1.78a26.17,26.17,0,0,0-3.39-1.59,31.33,31.33,0,0,0-3.56-1.13A9.58,9.58,0,0,0,35.45,19a4,4,0,0,0-1,0,1.36,1.36,0,0,0-.55.16.71.71,0,0,0-.4.61.79.79,0,0,0,.29.61A2.07,2.07,0,0,0,34.23,20.69Z"/><path class="cls-2" d="M54.44,21.06A16,16,0,0,0,57.72,23a16.17,16.17,0,0,1,3.3,1.9c-.68-1-1.34-2.21-2-3.26A30.21,30.21,0,0,0,57,18.51a19.05,19.05,0,0,0-2.49-2.84,7.38,7.38,0,0,0-3.32-1.73h-.09a.26.26,0,0,0-.23.27,9.51,9.51,0,0,0,3.59,6.86Z"/><path class="cls-2" d="M56.06,32.89a3.69,3.69,0,0,0-1.26,1.77,9.1,9.1,0,0,0,2.86-1,12.32,12.32,0,0,0,2.48-1.85,16.37,16.37,0,0,0,2-2.37c-.54.23-1.34.6-2.21,1-.71.35-1.46.75-2.17,1.18C57.3,32.07,56.64,32.42,56.06,32.89Z"/><path class="cls-2" d="M26.36,46.26c-.57,1-1.17,2-1.68,3a24.09,24.09,0,0,0-1.4,3.16l-.57,1.64-.45,1.68a30.11,30.11,0,0,0-.69,3.4,11.12,11.12,0,0,0-.15,1.73l-.07,1.7s0,0,0,0v0a37.54,37.54,0,0,0-1.8,4.28,39.28,39.28,0,0,0-1.25,4.52,43,43,0,0,0-.72,4.64c-.19,1.55-.23,3.12-.28,4.68v0a.3.3,0,0,0,.06.18.23.23,0,0,0,.35,0,13.71,13.71,0,0,0,2.71-4,15.85,15.85,0,0,0,1.29-4.7l.15-1.22c0-.41,0-.82.05-1.23,0-.81.06-1.63,0-2.44-.12-1.61-.24-3.2-.44-4.8,0,0,0,0,0,0h0c.22-1.13.31-2.28.59-3.38s.53-2.21.9-3.28l.51-1.61.63-1.57a29.23,29.23,0,0,1,1.4-3.07c.48-1,1.06-2,1.58-3s1.14-1.93,1.77-2.87C30,42,31.36,40.17,32.76,38.42c.83-.86,1.63-1.77,2.52-2.56s1.78-1.61,2.68-2.4a53.54,53.54,0,0,1,5.88-4.07,0,0,0,0,0,0-.06,0,0,0,0,0-.06,0,55.16,55.16,0,0,0-6,3.87c-.93.77-1.87,1.52-2.77,2.33S33.24,37.18,32.38,38v0h0c-1.45,1.72-2.83,3.5-4.12,5.37C27.58,44.34,27,45.32,26.36,46.26Z"/><path class="cls-2" d="M28,66.36l0,0a.31.31,0,0,0,.13,0,.22.22,0,0,0,.17-.25c-.07-.57-.15-1.15-.2-1.72s-.08-1.15-.16-1.72-.11-1.15-.15-1.73-.16-1.14-.25-1.71a18.6,18.6,0,0,0-.9-3.31l-.57-1.68a16,16,0,0,1-.48-1.63c0,.59-.06,1.16-.14,1.75s-.18,1.28-.24,1.87a25.39,25.39,0,0,0-.16,3.6,12.62,12.62,0,0,0,.66,3.63A5.41,5.41,0,0,0,28,66.36Z"/><path class="cls-2" d="M17.69,62a37.84,37.84,0,0,0,1.9-3.55,36.69,36.69,0,0,1,1.83-3.59s0,0,0,0a.17.17,0,0,0-.1-.14H21.2l-.12,0-.06,0h0a0,0,0,0,0,0,0s0,0,0,0c-.43.5-.87,1-1.34,1.46l-1.38,1.34c-.93.93-1.76,1.92-2.62,2.94-.43.52-.85,1-1.26,1.56a16.27,16.27,0,0,0-1.11,1.72,9.17,9.17,0,0,0-1.19,4v0a.34.34,0,0,0,0,.17.24.24,0,0,0,.34.05,21.6,21.6,0,0,0,2.8-2.86C16.13,64.24,16.88,63.13,17.69,62Z"/><path class="cls-2" d="M14.69,48.7a8.16,8.16,0,0,0,3.86-.46,14.83,14.83,0,0,0,3.52-1.75,19.29,19.29,0,0,0,3-2.59c.45-.47,1-1,1.44-1.43s1-.89,1.46-1.31a17.34,17.34,0,0,1-1.84.51l-2,.44-.05,0a24.1,24.1,0,0,1-2.67.94c-.93.29-1.86.6-2.78.94a8.63,8.63,0,0,0-2.6,1.6,4.9,4.9,0,0,0-1.51,2.79v0h0A.23.23,0,0,0,14.69,48.7Zm12.77-7.19-.31.24Z"/><path class="cls-2" d="M31.19,49.48c.24.65.6,1.29.85,2.06a7.08,7.08,0,0,0,.65-3.17,14.39,14.39,0,0,0-.51-3.24c-.26-1.07-.57-2.14-.77-3.2-.06.67-.15,1.63-.21,2.68,0,.86-.07,1.79-.06,2.68A2.81,2.81,0,0,0,31.19,49.48Z"/><path class="cls-2" d="M62.66,6.84l1,2.08,1.18,2v0c.7.88,1.36,1.8,2.09,2.67s1.45,1.73,2.25,2.52,1.56,1.63,2.42,2.34,1.69,1.49,2.58,2.18c.44.34.87.72,1.33,1s1,.57,1.44.86A21.3,21.3,0,0,0,80,24c.26.11.5.23.77.32l.79.24,1.6.44a9.8,9.8,0,0,0,1.62.28l1.62.21h0c1.08.72,2.17,1.33,3.25,2A34.88,34.88,0,0,0,93,29.39a17.81,17.81,0,0,0,1.78.82,15.51,15.51,0,0,0,1.89.51,10.13,10.13,0,0,0,3.88.07h0a.24.24,0,0,0,.13-.07.26.26,0,0,0,0-.35,19.05,19.05,0,0,0-3.08-2.55,17.36,17.36,0,0,0-3.5-1.88,16.08,16.08,0,0,0-3.86-.75,17.46,17.46,0,0,0-3.89.14l0,0c-1-.32-2.08-.55-3.1-.89l-1.51-.59L81,23.6c-.25-.1-.49-.24-.73-.36a31.59,31.59,0,0,1-2.86-1.55c-.46-.28-.92-.57-1.39-.84s-.88-.65-1.32-1c-.89-.64-1.74-1.32-2.59-2a30.24,30.24,0,0,1-2.46-2.22c-.82-.75-1.53-1.62-2.3-2.42s-1.42-1.73-2.14-2.59L64,8.73l-1.06-2-1-2.06-.83-2.13s0,0,0,0a0,0,0,0,0,0,.06l.76,2.17Z"/><path class="cls-2" d="M79.21,21.17a6.58,6.58,0,0,1,1.47.11,18.88,18.88,0,0,0,3,.21,13.23,13.23,0,0,0,3-.38,5,5,0,0,0,2.71-1.65l0,0a.21.21,0,0,0,0-.11.22.22,0,0,0-.17-.26,12.35,12.35,0,0,0-3-.1,19.52,19.52,0,0,0-2.95.38,15.81,15.81,0,0,0-2.8.85,11.2,11.2,0,0,1-1.4.4,5.52,5.52,0,0,1-.71.11,5.4,5.4,0,0,0-.77.05,2.23,2.23,0,0,0,.72.34A2.54,2.54,0,0,0,79.21,21.17Z"/><path class="cls-2" d="M72,22.2c-.35-.46-.77-.95-1.18-1.39a15.8,15.8,0,0,1-1.1-1.35,31.47,31.47,0,0,1,.53,3.5A28.3,28.3,0,0,0,71,26.45a16.3,16.3,0,0,0,1.21,3.36,7.34,7.34,0,0,0,2.26,2.73l0,0,.09,0a.24.24,0,0,0,.27-.2,12.75,12.75,0,0,0,0-3.65,15.48,15.48,0,0,0-.92-3.52A12.44,12.44,0,0,0,72,22.2Z"/><path class="cls-2" d="M74.29,15.35c1.21-.8,2.75.81,2.23-.27-.2-1.24-.85-1.53-1.72-1.41a13,13,0,0,0-2.37.78A6.34,6.34,0,0,1,70,15c.47.07,1.24.17,2.13.25C72.82,15.31,73.56,15.35,74.29,15.35Z"/><path class="cls-2" d="M63.16,141.58a16.77,16.77,0,0,0-4.6-3.76c-.44-.23-.86-.49-1.3-.71l-1.34-.59a25.23,25.23,0,0,0-2.73-1.06,50.59,50.59,0,0,0-5.52-1.5l-.05,0a0,0,0,0,0,0,0,0,0,0,0,0,0,0h0c-1.85-1.27-3.72-2.49-5.44-3.94L40.81,129l-1.25-1.13c-.85-.75-1.65-1.55-2.45-2.33s-1.57-1.63-2.36-2.43-1.51-1.69-2.24-2.55l-1.09-1.31-.54-.66-.48-.71L28.48,115a57.94,57.94,0,0,1-6-12.43,32,32,0,0,1-1.08-3.31L21,97.57l-.39-1.7c-.3-1.13-.45-2.29-.66-3.44L19.32,89h0s0,0-.05,0a0,0,0,0,0,0,0l.49,3.48c.18,1.16.31,2.33.58,3.47l.35,1.72.42,1.71c.25,1.15.65,2.25,1,3.36a59.23,59.23,0,0,0,5.82,12.68l1.88,2.93.47.73.53.68,1.07,1.36c.74.88,1.49,1.76,2.25,2.62s1.57,1.67,2.42,2.44,1.68,1.55,2.56,2.27l1.31,1.1,1.36,1a42.68,42.68,0,0,0,5.76,3.52,0,0,0,0,0,.06,0v0l.05,0c.78.77,1.58,1.54,2.39,2.28s1.63,1.55,2.47,2.3,1.67,1.52,2.56,2.21,1.77,1.39,2.67,2.07l.11.05h0a11.17,11.17,0,0,1,2,.91c.65.37,1.32.81,2,1.22a22.67,22.67,0,0,0,2,1.19,7,7,0,0,0,2.28.71h0a.25.25,0,0,0,.12,0,.27.27,0,0,0,.13-.34A16.18,16.18,0,0,0,63.16,141.58Z"/><path class="cls-2" d="M54,127.11a.18.18,0,0,0,.09-.08.25.25,0,0,0,0-.33,14.36,14.36,0,0,0-3.83-1.93c-.68-.18-1.35-.4-2-.61a18.81,18.81,0,0,0-2.08-.45,12.46,12.46,0,0,0-2.1-.21c-.7,0-1.41,0-2.11,0-1.38,0-2.87.17-4.24.17,1.06.45,2,1,3.13,1.59s2,1.11,3.15,1.55l1.63.65a10.42,10.42,0,0,0,1.73.43,11.65,11.65,0,0,0,3.54.09h0a9.06,9.06,0,0,0,3.18-.86Z"/><path class="cls-2" d="M48.92,145.48c-.45-.76-.89-1.53-1.31-2.31s-.86-1.55-1.28-2.33L45,138.52c-1-1.47-2-2.89-3.13-4.26a20.5,20.5,0,0,0-3.55-3.91c.38.82.74,1.66,1.1,2.54l1.1,2.54c.77,1.65,1.4,3.32,2.19,5a30.26,30.26,0,0,0,2.72,4.79,8.81,8.81,0,0,0,1.94,2,4.92,4.92,0,0,0,2.56,1h0a.14.14,0,0,0,.12,0,.23.23,0,0,0,.08-.31C49.74,147.06,49.31,146.28,48.92,145.48Z"/><path class="cls-2" d="M29.87,126.73c-.26-.92-.53-1.84-.83-2.75s-.71-1.76-1.09-2.63l-1.06-2.64c-.32-.93-.61-1.84-.87-2.75,0,1.1-.07,2.22-.14,3.4v0a24.35,24.35,0,0,1,.17,4.68c0,1.55,0,3.14,0,4.72a38.36,38.36,0,0,0,.4,4.79,10.34,10.34,0,0,0,1.9,4.41l0,0a.1.1,0,0,0,.06,0,.23.23,0,0,0,.33-.08,10.77,10.77,0,0,0,1.62-5.49,17.58,17.58,0,0,0-.06-2.9ZM26.1,116.37c.06.21.11.43.16.64C26.21,116.79,26.15,116.58,26.1,116.37Z"/><path class="cls-2" d="M33.22,113.42a27.43,27.43,0,0,0,3.11,1.11,7,7,0,0,0,3.26.07,6.3,6.3,0,0,0-2-1.65,8.75,8.75,0,0,0-2.45-.83,23.74,23.74,0,0,0-2.57-.31c-.85-.07-1.72-.13-2.57-.24a11.21,11.21,0,0,1-2.51-.6c.49.24,1.54.76,2.85,1.32C31.19,112.68,32.21,113.06,33.22,113.42Z"/><path class="cls-2" d="M134.87,129.83a11.23,11.23,0,0,0-4.19-1.26,16.34,16.34,0,0,0-4.35.27,11.39,11.39,0,0,0-2.1.67c-.65.33-1.31.66-2,1a35.29,35.29,0,0,0-3.68,2.35h0s0,0,0,0c-.8.08-1.6.19-2.4.28l-2.42.24c-.84.06-1.64.23-2.42.23l-2.42-.12-2.41-.18c-.81-.08-1.61-.2-2.42-.29a37.16,37.16,0,0,1-4.79-.82c-.8-.16-1.57-.43-2.35-.66s-1.55-.49-2.32-.77l-1.16-.4c-.38-.15-.75-.33-1.12-.49a15,15,0,0,1-2.21-1.07,45.89,45.89,0,0,1-4.22-2.59c-.63-.53-1.29-1-1.91-1.6l-1.82-1.73a0,0,0,0,0-.06,0s0,0,0,.06l1.77,1.81c.6.58,1.25,1.12,1.88,1.68a44.94,44.94,0,0,0,4.16,2.78,17.1,17.1,0,0,0,2.21,1.14c.38.17.75.36,1.13.52l1.16.44c.77.3,1.55.59,2.34.85s1.56.54,2.36.73a38.16,38.16,0,0,0,4.84,1c.82.11,1.63.25,2.45.33l2.47.15h2.47c.86-.06,1.66-.25,2.45-.38l2.43-.46c.8-.2,1.6-.39,2.39-.61l0,0c1,.06,2,.08,3.06.09s2.06-.1,3.09-.16,2-.21,3.08-.35,2-.35,3-.53h0a15,15,0,0,0,3.92-1.7h0a.36.36,0,0,0,.1-.11A.27.27,0,0,0,134.87,129.83Z"/><path class="cls-2" d="M114,130.75a9.9,9.9,0,0,0,2.37-1.41,6.69,6.69,0,0,0,1.8-2.23,5.67,5.67,0,0,0,.49-2.86v0a.23.23,0,0,0-.07-.14.19.19,0,0,0-.28,0,11.81,11.81,0,0,1-2.3,2.17l-2.67,1.67a20.82,20.82,0,0,0-2.47,2c-.37.39-.74.78-1.09,1.2l-.53.61a4.45,4.45,0,0,0-.51.68c.43-.18.86-.34,1.31-.49l1.42-.44h0A25.06,25.06,0,0,0,114,130.75Z"/><path class="cls-2" d="M126.21,139.59c-1.14-.25-2.28-.54-3.39-.9s-2.17-1-3.26-1.44h0a26.16,26.16,0,0,0-3.5-.75,15.54,15.54,0,0,0-1.8-.23c-.31,0-.61,0-.91,0a3.94,3.94,0,0,0-.94.07c.51.25,1,.5,1.51.78l1.55.92h.07a14.77,14.77,0,0,1,2.53,1c.84.43,1.69.85,2.56,1.24a7.83,7.83,0,0,0,2.88.58,5.24,5.24,0,0,0,2.8-.86h0a.25.25,0,0,0-.07-.44Z"/><path class="cls-2" d="M108.23,142.12a13.07,13.07,0,0,0-2.5-3.56l0,0a7.42,7.42,0,0,0-1.6-1.52,10.75,10.75,0,0,0-1.85-1l-1.92-.92c-.65-.3-1.25-.63-1.85-1,.37.53.72,1.06,1,1.63l1,1.77h0l0,0a15.92,15.92,0,0,1,1.77,2.43c.52.9,1.06,1.79,1.61,2.67a13.23,13.23,0,0,0,2,2.48,5.61,5.61,0,0,0,2.79,1.47h.07a.24.24,0,0,0,.24-.25,9.27,9.27,0,0,0-.21-2.23A10.12,10.12,0,0,0,108.23,142.12Zm-9.29-7.66c.13.07.25.15.37.23Z"/><path class="cls-2" d="M102.21,128.82a2.86,2.86,0,0,0,2.17-1.17c.49-.62.85-1.43,1.35-2.23a16,16,0,0,0-2.88,1.41c-.92.56-1.81,1.18-2.68,1.83s-1.72,1.32-2.58,2c.48-.17,1.35-.45,2.33-.84C100.65,129.51,101.44,129.18,102.21,128.82Z"/><path class="cls-2" d="M138.2,87.6c-.17.8-.34,1.6-.45,2.41s-.14,1.63-.15,2.45.13,1.64.21,2.44.33,1.53.52,2.28c0,0,0,0,0,.08s0,0,0,0a50.5,50.5,0,0,1-2.69,10.14c-.32.81-.56,1.66-.94,2.44l-1.08,2.38-1.26,2.28-1.36,2.2-3.16,4.13c-1.09,1.33-2.25,2.61-3.41,3.89-2.44,2.4-4.92,4.86-8,6.35h0s0,0,0,.06a0,0,0,0,0,0,0,20.93,20.93,0,0,0,4.35-2.71c.67-.54,1.32-1.09,2-1.66a21.07,21.07,0,0,0,1.91-1.75c1.2-1.25,2.4-2.51,3.54-3.82l3.28-4.08L133,115l1.35-2.29,1.14-2.41c.38-.8.62-1.67.94-2.51a35.54,35.54,0,0,0,2-10.5h0s0-.05,0-.07c.25-.73.49-1.45.72-2.17l.84-2.21c.55-1.48,1.11-3,1.63-4.48a19.72,19.72,0,0,0,1-4.75,13.33,13.33,0,0,0-.43-4.87v0a.24.24,0,0,0-.12-.14.22.22,0,0,0-.3.12c-.65,1.47-1.39,2.88-2,4.4A38.44,38.44,0,0,0,138.2,87.6Z"/><path class="cls-2" d="M132,93.17a.2.2,0,0,0-.23.19,19.26,19.26,0,0,0,0,3.87,25.71,25.71,0,0,0,.58,3.82,31.47,31.47,0,0,0,1.06,3.66,12.25,12.25,0,0,1,.86,3.7,1.14,1.14,0,0,0,.09.16c.05,0,0,.13.17.13.1-.18,0-.26,0-.39l0-.68a8.55,8.55,0,0,1,0-1.34,13,13,0,0,0,.48-3.36,16.34,16.34,0,0,0-.1-1.71c0-.56-.2-1.12-.3-1.68a13.22,13.22,0,0,0-.4-1.65l-.56-1.6a23.15,23.15,0,0,0-1.47-3A.18.18,0,0,0,132,93.17Z"/><path class="cls-2" d="M147.9,92.06a.23.23,0,0,0-.32-.09,13.19,13.19,0,0,0-1.66,1.23,17,17,0,0,0-1.46,1.48l0,0h0c-.51.86-1.07,1.69-1.6,2.53s-1,1.7-1.49,2.59-.88,1.8-1.3,2.71-.84,1.88-1.33,2.74c.39-.46.78-.9,1.2-1.32l1.35-1.33,0,0c.69-.74,1.35-1.5,2-2.28s1.33-1.56,2-2.37a20.23,20.23,0,0,0,1.68-2.66,11.05,11.05,0,0,0,1-3v0A.3.3,0,0,0,147.9,92.06Z"/><path class="cls-2" d="M145.48,111.62v0a.21.21,0,0,0-.24-.18,21.89,21.89,0,0,0-3.74,1c-.6.21-1.21.43-1.81.68s-1.17.57-1.75.87l-.86.47a4.44,4.44,0,0,0-.81.55c-.52.41-1,.85-1.5,1.3a15,15,0,0,0-1.42,1.45c-.44.5-.9,1-1.37,1.4.5-.16,1-.31,1.51-.44l1.6-.38c1-.26,2.06-.52,3.07-.86a.34.34,0,0,0,.12-.06l0,0a6.59,6.59,0,0,1,1.92-1.1l2.21-.83a6.21,6.21,0,0,0,2.16-1.29,3.13,3.13,0,0,0,.89-2.49Z"/><path class="cls-2" d="M128.9,115.78c0-.87,0-1.83,0-2.76a8.64,8.64,0,0,0-.18-2.31,9.7,9.7,0,0,0-.75-2.18,7,7,0,0,0-.42,3.34,20.68,20.68,0,0,0,.72,3.31,9.39,9.39,0,0,1,.46,3.34C128.78,117.89,128.87,116.9,128.9,115.78Z"/><path class="cls-2" d="M97.42,153h0a61.9,61.9,0,0,0-4.33-6.75,14.72,14.72,0,0,0-1.25-1.56c-.44-.5-.86-1-1.31-1.51a29.91,29.91,0,0,0-2.82-2.81,24.41,24.41,0,0,0-6.63-4.27l-1.83-.71a18,18,0,0,0-1.9-.44l-1-.2c-.32-.05-.65-.06-1-.09l-1.93-.12s0,0,0,0h0a26.69,26.69,0,0,0-3-1.89l-1.62-.8a15.08,15.08,0,0,0-1.69-.65c-.57-.19-1.14-.4-1.72-.54l-1.76-.41a8.93,8.93,0,0,0-1.78-.29c-.59-.08-1.19-.13-1.78-.18h0a.32.32,0,0,0-.16,0,.28.28,0,0,0-.07.36A9.18,9.18,0,0,0,62.53,133,13.11,13.11,0,0,0,66,134.66a12.92,12.92,0,0,0,3.76.37,23.61,23.61,0,0,0,3.66-.34l0,0s0,0,.06,0v0l1.86.39c.31.08.62.12.93.19l.91.29c.61.2,1.22.35,1.81.57l1.74.79A34.69,34.69,0,0,1,87.22,141a25.51,25.51,0,0,1,2.85,2.66c.46.46.89,1,1.33,1.44a16.61,16.61,0,0,1,1.28,1.5,69.51,69.51,0,0,1,4.51,6.54l1,2.11.82,2.2s0,0,.06,0a0,0,0,0,0,0-.06l-.74-2.24Z"/><path class="cls-2" d="M78.65,138.45a21,21,0,0,0-2.86-.06,17.68,17.68,0,0,0-2.81.46,3.75,3.75,0,0,0-2.41,1.81l0,.05a.19.19,0,0,0,0,.13.21.21,0,0,0,.23.19,20.78,20.78,0,0,1,2.73-.21c.9-.08,1.82-.09,2.74-.16A13.66,13.66,0,0,0,78.9,140c.46-.2.92-.43,1.32-.63s.82-.35,1.25-.51a10.11,10.11,0,0,1-1.35-.12Z"/><path class="cls-2" d="M75.52,129c-.37-.41-.74-.84-1.14-1.23l-1.3-1.09a10.66,10.66,0,0,0-2.82-1.78l0,0a.29.29,0,0,0-.16,0,.25.25,0,0,0-.16.32,10.48,10.48,0,0,0,1.56,3.16,15.11,15.11,0,0,0,2.3,2.62,12.76,12.76,0,0,0,2.87,1.82l1.56.76c.51.24,1,.52,1.46.8a14.41,14.41,0,0,1-1-1.28l-1-1.44A25.12,25.12,0,0,0,75.52,129Z"/><path class="cls-2" d="M88.33,137.91a14.21,14.21,0,0,1,2,3.26.59.59,0,0,0,0-.13.41.41,0,0,0,0-.16c-.1-.48-.19-1-.25-1.46l-.22-1.88v0l0-.06a19.37,19.37,0,0,1-.94-2.5c-.19-.9-.39-1.78-.62-2.67l-.76-2.71a9.74,9.74,0,0,0-1.31-2.52l0,0A.23.23,0,0,0,86,127a.25.25,0,0,0-.33.14,8.13,8.13,0,0,0-.54,3.87,11.89,11.89,0,0,0,1.13,3.75A21.53,21.53,0,0,0,88.33,137.91Z"/><path class="cls-2" d="M85.72,144.2a3.78,3.78,0,0,0-2.08-.51A2.4,2.4,0,0,0,82,145a6.5,6.5,0,0,0,2.66.43,14.29,14.29,0,0,0,2.68-.37c.93-.2,1.83-.43,2.65-.59-.41-.06-1.19-.14-2.11-.21C87.18,144.24,86.45,144.2,85.72,144.2Z"/><path class="cls-2" d="M136.94,81.33A2.16,2.16,0,0,0,139,79.1a2.13,2.13,0,0,0-2.08-2.19,2.21,2.21,0,0,0,0,4.42Z"/><path class="cls-2" d="M133.84,65.49a1.05,1.05,0,0,0-1,1.07c.44.44.45,1,1,1C135.31,67,135.3,65.9,133.84,65.49Z"/><path class="cls-2" d="M125,43.47c1-.56.5-1.08-.23-1.67a.88.88,0,0,0-.86.93C124.45,43,124.46,43.49,125,43.47Z"/><path class="cls-2" d="M97.75,141a1.76,1.76,0,0,0-1.12-1.72,1.49,1.49,0,0,0-1.43,1.5c.12.49.63,1.59,1.15,1.58A1.42,1.42,0,0,0,97.75,141Z"/><path class="cls-2" d="M70.46,136.33a1,1,0,0,0,0,1.92C71.53,137.74,72,136.66,70.46,136.33Z"/><path class="cls-2" d="M102.1,121.67a1,1,0,0,0-1-1,.94.94,0,0,0-.94,1C100.59,122.45,101.63,123,102.1,121.67Z"/><path class="cls-2" d="M66.39,28c.24.1.27.66.76.66,1-.55.49-1.11-.1-1.43A.73.73,0,0,0,66.39,28Z"/><path class="cls-2" d="M47.83,41.9c1.12,1.32,1.62.76,2.1-.35-.51,0-.53-.56-1.18-.71A1,1,0,0,0,47.83,41.9Z"/><path class="cls-2" d="M49.52,122.87c.27,1.33.78,1.33,1.29,1.33,1.53-.54,1-1.62-.15-2.56A1.16,1.16,0,0,0,49.52,122.87Z"/><path class="cls-2" d="M35.5,128.72a.83.83,0,0,0-.84.91c.4.59.41,1.14.92,1.14C37.09,130.21,37.07,129.11,35.5,128.72Z"/><path class="cls-2" d="M18.25,84.54a1.28,1.28,0,0,0-1.19,1.35,1.22,1.22,0,1,0,2.43,0A1.28,1.28,0,0,0,18.25,84.54Z"/><path class="cls-2" d="M23.6,83.53a2.07,2.07,0,0,0,1.92-2.24,2.13,2.13,0,0,0-2.06-2.17,2.07,2.07,0,0,0-1.92,2.24A2.13,2.13,0,0,0,23.6,83.53Z"/><path class="cls-2" d="M25.31,67.57a1.49,1.49,0,0,0-1.39,1.56,1.47,1.47,0,0,0,1.65,1.35C27.59,69.92,26.57,68.85,25.31,67.57Z"/><path class="cls-2" d="M28,49.83c.49.67.49,1.21,1,1.21,1.52-.55,1.52-1.63,0-2.19A1,1,0,0,0,28,49.83Z"/><path class="cls-2" d="M36.85,36.15a.6.6,0,0,0-.59.62c.26.73.77,1.26,1.28.18C37.53,36.41,37,36.42,36.85,36.15Z"/><path class="cls-2" d="M31.22,38.29a.59.59,0,1,0-1.18,0,.6.6,0,0,0,.59.62A.61.61,0,0,0,31.22,38.29Z"/><path class="cls-2" d="M16,97.53a1.16,1.16,0,0,0-1.1,1.19c-.34,1.51,1.17,1,1.68,1C17.6,99.12,16.59,98.05,16,97.53Z"/><path class="cls-2" d="M23.33,114.15a.88.88,0,0,0-.81.91c.69,1.27,1.19.73,1.69.18A5.14,5.14,0,0,1,23.33,114.15Z"/></svg>